<?xml version="1.0" standalone="no"?>
<!DOCTYPE svg PUBLIC "-//W3C//DTD SVG 20010904//EN"
 "http://www.w3.org/TR/2001/REC-SVG-20010904/DTD/svg10.dtd">
<svg version="1.0" xmlns="http://www.w3.org/2000/svg"
 width="512.000000pt" height="512.000000pt" viewBox="0 0 512.000000 512.000000"
 preserveAspectRatio="xMidYMid meet">
<metadata>
Created by potrace 1.11, written by Peter Selinger 2001-2013
</metadata>
<g transform="translate(0.000000,512.000000) scale(0.100000,-0.100000)"
fill="#000000" stroke="none">
<path d="M3495 4559 c-137 -13 -256 -71 -362 -175 l-73 -71 -73 72 c-119 117
-261 175 -427 175 -166 0 -308 -58 -425 -174 -85 -84 -137 -173 -165 -281 -19
-76 -20 -111 -20 -1065 l0 -988 46 -7 c25 -3 74 -3 110 0 l64 7 0 254 0 254
390 0 390 0 0 -254 0 -254 23 -6 c41 -11 173 -6 190 7 16 11 17 88 19 1007 l3
995 29 60 c117 236 426 293 614 112 90 -87 122 -185 122 -379 l0 -118 116 0
117 0 -6 168 c-4 135 -9 180 -27 232 -27 82 -72 163 -118 215 -143 160 -327
233 -537 214z m-855 -233 c160 -34 273 -156 300 -323 6 -32 10 -194 10 -360
l0 -303 -390 0 -390 0 0 303 c0 166 4 328 10 360 26 164 140 288 295 322 78
17 88 17 165 1z m18 -1213 l292 -6 0 -164 0 -163 -390 0 -390 0 0 170 0 170
98 0 c53 0 229 -3 390 -7z"/>
</g>
</svg>
